<?xml version="1.0" encoding="UTF-8"?>
<svg xmlns="http://www.w3.org/2000/svg" xmlns:xlink="http://www.w3.org/1999/xlink" width="200pt" height="200pt" viewBox="0 0 200 200" version="1.1">
<g id="surface27152021">
<path style=" stroke:none;fill-rule:nonzero;fill:rgb(93.333333%,24.313725%,32.941176%);fill-opacity:1;" d="M 26 54 C 23.789062 54 22 55.789062 22 58 C 22 60.210938 23.789062 62 26 62 C 28.210938 62 30 60.210938 30 58 C 30 55.789062 28.210938 54 26 54 Z M 26 54 "/>
<path style=" stroke:none;fill-rule:nonzero;fill:rgb(94.509804%,73.72549%,9.803922%);fill-opacity:1;" d="M 154 24 C 152.894531 24 152 24.894531 152 26 C 152 27.105469 152.894531 28 154 28 C 155.105469 28 156 27.105469 156 26 C 156 24.894531 155.105469 24 154 24 Z M 154 24 "/>
<path style=" stroke:none;fill-rule:nonzero;fill:rgb(98.823529%,87.843137%,63.529412%);fill-opacity:1;" d="M 100 26 C 59.132812 26 26 59.132812 26 100 C 26 140.867188 59.132812 174 100 174 C 140.867188 174 174 140.867188 174 100 C 174 59.132812 140.867188 26 100 26 Z M 100 26 "/>
<path style=" stroke:none;fill-rule:nonzero;fill:rgb(94.509804%,73.72549%,9.803922%);fill-opacity:1;" d="M 166 22 C 161.582031 22 158 25.582031 158 30 C 158 34.417969 161.582031 38 166 38 C 170.417969 38 174 34.417969 174 30 C 174 25.582031 170.417969 22 166 22 Z M 166 22 "/>
<path style=" stroke:none;fill-rule:nonzero;fill:rgb(93.333333%,24.313725%,32.941176%);fill-opacity:1;" d="M 174 44 C 171.789062 44 170 45.789062 170 48 C 170 50.210938 171.789062 52 174 52 C 176.210938 52 178 50.210938 178 48 C 178 45.789062 176.210938 44 174 44 Z M 174 44 "/>
<path style=" stroke:none;fill-rule:nonzero;fill:rgb(98.431373%,80.392157%,34.901961%);fill-opacity:1;" d="M 162 148 C 159.789062 148 158 149.789062 158 152 C 158 154.210938 159.789062 156 162 156 C 164.210938 156 166 154.210938 166 152 C 166 149.789062 164.210938 148 162 148 Z M 30 118 C 25.582031 118 22 121.582031 22 126 C 22 130.417969 25.582031 134 30 134 C 34.417969 134 38 130.417969 38 126 C 38 121.582031 34.417969 118 30 118 Z M 30 118 "/>
<path style=" stroke:none;fill-rule:nonzero;fill:rgb(93.333333%,24.313725%,32.941176%);fill-opacity:1;" d="M 50 170 C 47.789062 170 46 171.789062 46 174 C 46 176.210938 47.789062 178 50 178 C 52.210938 178 54 176.210938 54 174 C 54 171.789062 52.210938 170 50 170 Z M 50 170 "/>
<path style=" stroke:none;fill-rule:nonzero;fill:rgb(100%,100%,100%);fill-opacity:1;" d="M 37 102 C 34.238281 102 32 104.238281 32 107 C 32 109.761719 34.238281 112 37 112 C 39.761719 112 42 109.761719 42 107 C 42 104.238281 39.761719 102 37 102 Z M 37 102 "/>
<path style=" stroke:none;fill-rule:nonzero;fill:rgb(94.509804%,73.72549%,9.803922%);fill-opacity:1;" d="M 42 132 C 40.894531 132 40 132.894531 40 134 C 40 135.105469 40.894531 136 42 136 C 43.105469 136 44 135.105469 44 134 C 44 132.894531 43.105469 132 42 132 Z M 42 132 "/>
<path style=" stroke:none;fill-rule:nonzero;fill:rgb(100%,100%,100%);fill-opacity:1;" d="M 160 66 C 158.894531 66 158 66.894531 158 68 C 158 69.105469 158.894531 70 160 70 C 161.105469 70 162 69.105469 162 68 C 162 66.894531 161.105469 66 160 66 Z M 160 66 "/>
<path style=" stroke:none;fill-rule:nonzero;fill:rgb(7.058824%,47.843137%,84.705882%);fill-opacity:1;" d="M 70 144.601562 C 62 144.601562 55.398438 138 55.398438 130 L 55.398438 70 C 55.398438 62 62 55.398438 70 55.398438 L 130 55.398438 C 138 55.398438 144.601562 62 144.601562 70 L 144.601562 130 C 144.601562 138 138 144.601562 130 144.601562 Z M 70 144.601562 "/>
<path style=" stroke:none;fill-rule:nonzero;fill:rgb(27.843137%,16.862745%,16.078431%);fill-opacity:1;" d="M 130 56.800781 C 137.199219 56.800781 143.199219 62.800781 143.199219 70 L 143.199219 130 C 143.199219 137.199219 137.199219 143.199219 130 143.199219 L 70 143.199219 C 62.800781 143.199219 56.800781 137.199219 56.800781 130 L 56.800781 70 C 56.800781 62.800781 62.800781 56.800781 70 56.800781 L 130 56.800781 M 130 54 L 70 54 C 61.199219 54 54 61.199219 54 70 L 54 130 C 54 138.800781 61.199219 146 70 146 L 130 146 C 138.800781 146 146 138.800781 146 130 L 146 70 C 146 61.199219 138.800781 54 130 54 Z M 130 54 "/>
<path style=" stroke:none;fill-rule:nonzero;fill:rgb(99.215686%,98.823529%,93.333333%);fill-opacity:1;" d="M 127.199219 137 L 73 137 C 67.601562 137 63.398438 132.601562 63.398438 127.398438 L 63.398438 72.601562 C 63.398438 67.199219 67.800781 63 73 63 L 127.199219 63 C 132.601562 63 136.800781 67.398438 136.800781 72.601562 L 136.800781 127.199219 C 136.800781 132.601562 132.601562 137 127.199219 137 Z M 127.199219 137 "/>
<path style=" stroke:none;fill-rule:nonzero;fill:rgb(27.843137%,16.862745%,16.078431%);fill-opacity:1;" d="M 137 94.800781 C 136.398438 94.800781 136 94.398438 136 93.800781 L 136 86 C 136 85.398438 136.398438 85 137 85 C 137.601562 85 138 85.398438 138 86 L 138 93.800781 C 138 94.398438 137.601562 94.800781 137 94.800781 Z M 137 94.800781 "/>
<path style=" stroke:none;fill-rule:nonzero;fill:rgb(27.843137%,16.862745%,16.078431%);fill-opacity:1;" d="M 137 81 C 136.398438 81 136 80.601562 136 80 L 136 76 C 136 75.398438 136.398438 75 137 75 C 137.601562 75 138 75.398438 138 76 L 138 80 C 138 80.601562 137.601562 81 137 81 Z M 137 81 "/>
<path style=" stroke:none;fill-rule:nonzero;fill:rgb(27.843137%,16.862745%,16.078431%);fill-opacity:1;" d="M 128 138 L 72 138 C 66.398438 138 62 133.601562 62 128 L 62 72 C 62 66.398438 66.398438 62 72 62 L 122.800781 62 C 123.398438 62 123.800781 62.398438 123.800781 63 C 123.800781 63.601562 123.398438 64 122.800781 64 L 72 64 C 67.601562 64 64 67.601562 64 72 L 64 128 C 64 132.398438 67.601562 136 72 136 L 128 136 C 132.398438 136 136 132.398438 136 128 L 136 99.199219 C 136 98.601562 136.398438 98.199219 137 98.199219 C 137.601562 98.199219 138 98.601562 138 99.199219 L 138 128 C 138 133.601562 133.601562 138 128 138 Z M 128 138 "/>
<path style=" stroke:none;fill-rule:nonzero;fill:rgb(7.058824%,47.843137%,84.705882%);fill-opacity:1;" d="M 121 103.199219 L 121 117 L 112.800781 117 L 112.601562 103.199219 C 112.601562 99.800781 111 97.199219 107.800781 97.199219 C 105.398438 97.199219 104 98.800781 103.398438 100.398438 C 103.199219 101 103.199219 101.800781 103.199219 102.398438 L 103.199219 116.800781 L 94.800781 116.800781 C 94.800781 116.800781 95 93.398438 94.800781 91 L 103.199219 91 L 103.199219 95 C 104.398438 93 106.398438 90.800781 111 90.800781 C 116.800781 91 121 94.601562 121 103.199219 Z M 121 103.199219 "/>
<path style=" stroke:none;fill-rule:nonzero;fill:rgb(27.843137%,16.862745%,16.078431%);fill-opacity:1;" d="M 121 118 L 112.800781 118 C 112.199219 118 111.800781 117.601562 111.800781 117 L 111.601562 103.199219 C 111.601562 101.800781 111.199219 98.199219 107.800781 98.199219 C 105.601562 98.199219 104.601562 100 104.199219 100.800781 C 104.199219 101 104 101.601562 104 102.601562 L 104 117 C 104 117.601562 103.601562 118 103 118 L 94.601562 118 C 94.398438 118 94 117.800781 93.800781 117.800781 C 93.601562 117.601562 93.601562 117.398438 93.601562 117 C 93.601562 116.800781 93.800781 93.601562 93.601562 91.199219 C 93.601562 91 93.601562 90.601562 93.800781 90.398438 C 94 90.199219 94.199219 90 94.601562 90 L 103 90 C 103.601562 90 104 90.398438 104 91 L 104 92.199219 C 105.800781 90.601562 108 89.800781 110.800781 89.800781 C 114 89.800781 116.398438 90.800781 118.398438 92.601562 C 120.601562 94.800781 121.800781 98.398438 121.800781 103 L 121.800781 116.800781 C 122 117.601562 121.601562 118 121 118 Z M 113.800781 116 L 120 116 L 120 103.199219 C 120 99.199219 119 96.199219 117.199219 94.199219 C 115.800781 92.800781 113.601562 92 111.199219 92 C 107 92 105.199219 94 104.199219 95.601562 C 103.800781 96.398438 102.800781 96.398438 102.398438 95.800781 C 102.199219 95.601562 102.199219 95.199219 102.398438 95 L 102.398438 92.199219 L 96 92.199219 C 96 96.601562 96 112 96 116 L 102.398438 116 L 102.398438 102.601562 C 102.398438 101.601562 102.601562 100.800781 102.800781 100.199219 C 103.800781 97.800781 105.800781 96.398438 108.199219 96.398438 C 111.800781 96.398438 114 99 114 103.398438 Z M 113.800781 116 "/>
<path style=" stroke:none;fill-rule:nonzero;fill:rgb(7.058824%,47.843137%,84.705882%);fill-opacity:1;" d="M 84.800781 79.601562 C 82.398438 79.601562 80.800781 81.199219 80.800781 83.601562 C 80.800781 85.800781 82.398438 87.601562 84.800781 87.601562 C 87.398438 87.601562 88.800781 85.800781 88.800781 83.601562 C 88.800781 81.199219 87.199219 79.601562 84.800781 79.601562 Z M 84.800781 79.601562 "/>
<path style=" stroke:none;fill-rule:nonzero;fill:rgb(27.843137%,16.862745%,16.078431%);fill-opacity:1;" d="M 84.800781 88.398438 C 81.800781 88.398438 79.800781 86.398438 79.800781 83.398438 C 79.800781 80.398438 82 78.398438 84.800781 78.398438 C 87.601562 78.398438 89.800781 80.398438 89.800781 83.199219 C 89.800781 86.398438 87.601562 88.398438 84.800781 88.398438 Z M 84.800781 80.601562 C 83 80.601562 81.800781 81.800781 81.800781 83.601562 C 81.800781 85.398438 83 86.601562 84.800781 86.601562 C 86.601562 86.601562 88 85.398438 88 83.601562 C 87.800781 81.800781 86.601562 80.601562 84.800781 80.601562 Z M 84.800781 80.601562 "/>
<path style=" stroke:none;fill-rule:nonzero;fill:rgb(7.058824%,47.843137%,84.705882%);fill-opacity:1;" d="M 80.800781 91.199219 L 89.199219 91.199219 L 89.199219 117 L 80.800781 117 Z M 80.800781 91.199219 "/>
<path style=" stroke:none;fill-rule:nonzero;fill:rgb(27.843137%,16.862745%,16.078431%);fill-opacity:1;" d="M 89.199219 118 L 80.800781 118 C 80.199219 118 79.800781 117.601562 79.800781 117 L 79.800781 91.199219 C 79.800781 90.601562 80.199219 90.199219 80.800781 90.199219 L 89.199219 90.199219 C 89.800781 90.199219 90.199219 90.601562 90.199219 91.199219 L 90.199219 117 C 90.199219 117.601562 89.800781 118 89.199219 118 Z M 81.800781 116 L 88.199219 116 L 88.199219 92.199219 L 81.800781 92.199219 Z M 81.800781 116 "/>
</g>
</svg>
